{
	"asset":{
		"generator":"Khronos glTF Blender I/O v4.2.70",
		"version":"2.0"
	},
	"scene":0,
	"scenes":[
		{
			"name":"Scene",
			"nodes":[
				0,
				1,
				2,
				3,
				4,
				5,
				6,
				7,
				8,
				9,
				10
			]
		}
	],
	"nodes":[
		{
			"mesh":0,
			"name":"carpet",
			"rotation":[
				0,
				-0.16704826056957245,
				0,
				0.9859487414360046
			],
			"scale":[
				13.100702285766602,
				13.100702285766602,
				13.100702285766602
			],
			"translation":[
				-0.2923126220703125,
				1.8145902156829834,
				-0.982759952545166
			]
		},
		{
			"mesh":1,
			"name":"suzanne",
			"rotation":[
				0.0353068932890892,
				0.9637170433998108,
				0.20933446288108826,
				0.16180847585201263
			],
			"scale":[
				0.5961342453956604,
				0.5961342453956604,
				0.5961342453956604
			],
			"translation":[
				10.729079246520996,
				4.6625213623046875,
				-3.140255928039551
			]
		},
		{
			"mesh":2,
			"name":"room",
			"scale":[
				23.382457733154297,
				23.382457733154297,
				23.382457733154297
			],
			"translation":[
				36.66277313232422,
				28.158447265625,
				-27.526878356933594
			]
		},
		{
			"mesh":3,
			"name":"box",
			"rotation":[
				0,
				0.36600741744041443,
				0,
				0.9306120276451111
			],
			"translation":[
				10.559011459350586,
				4.488395690917969,
				-3.2848052978515625
			]
		},
		{
			"mesh":4,
			"name":"box.001",
			"rotation":[
				0.015068846754729748,
				0.37397632002830505,
				0.038490090519189835,
				0.9265167713165283
			],
			"scale":[
				1.5696049928665161,
				1.5696049928665161,
				1.5696048736572266
			],
			"translation":[
				-12.145620346069336,
				2.38995099067688,
				19.592815399169922
			]
		},
		{
			"mesh":5,
			"name":"box.002",
			"rotation":[
				0.015068844892084599,
				0.37397634983062744,
				0.038490086793899536,
				0.9265166521072388
			],
			"scale":[
				2.1304636001586914,
				2.1304638385772705,
				2.1304636001586914
			],
			"translation":[
				-15.021003723144531,
				2.38995099067688,
				15.531676292419434
			]
		},
		{
			"mesh":6,
			"name":"box.003",
			"rotation":[
				0.015068845823407173,
				0.37397634983062744,
				0.038490086793899536,
				0.9265166521072388
			],
			"scale":[
				0.7965592741966248,
				0.7965591549873352,
				0.79655921459198
			],
			"translation":[
				-7.674471378326416,
				2.38995099067688,
				17.983163833618164
			]
		},
		{
			"mesh":7,
			"name":"cover",
			"rotation":[
				0,
				-0.3919502794742584,
				0,
				0.9199864268302917
			],
			"scale":[
				1.399999976158142,
				1.4289151430130005,
				1.399999976158142
			],
			"translation":[
				10.464359283447266,
				5.7800188064575195,
				-3.393873453140259
			]
		},
		{
			"mesh":8,
			"name":"cover.001",
			"rotation":[
				0.028467468917369843,
				-0.3913169801235199,
				0.01060260459780693,
				0.9197545647621155
			],
			"scale":[
				2.2770917415618896,
				2.3241219520568848,
				2.2770917415618896
			],
			"translation":[
				-12.724117279052734,
				4.174459934234619,
				19.654470443725586
			]
		},
		{
			"mesh":9,
			"name":"cover.002",
			"rotation":[
				0.026714064180850983,
				-0.3914346694946289,
				0.00552789494395256,
				0.9198014736175537
			],
			"scale":[
				3.044320821762085,
				3.1071970462799072,
				3.044320583343506
			],
			"translation":[
				-15.70979118347168,
				4.8944878578186035,
				15.495905876159668
			]
		},
		{
			"mesh":10,
			"name":"cover.003",
			"rotation":[
				-0.21049845218658447,
				-0.3560355603694916,
				0.10269546508789062,
				0.9046450853347778
			],
			"scale":[
				1.1721395254135132,
				1.1963484287261963,
				1.172139286994934
			],
			"translation":[
				-7.673043251037598,
				3.023207902908325,
				16.09984588623047
			]
		}
	],
	"animations":[
		{
			"channels":[
				{
					"sampler":0,
					"target":{
						"node":1,
						"path":"translation"
					}
				},
				{
					"sampler":1,
					"target":{
						"node":1,
						"path":"rotation"
					}
				}
			],
			"name":"SuzanneAction",
			"samplers":[
				{
					"input":54,
					"interpolation":"LINEAR",
					"output":55
				},
				{
					"input":54,
					"interpolation":"LINEAR",
					"output":56
				}
			]
		},
		{
			"channels":[
				{
					"sampler":0,
					"target":{
						"node":3,
						"path":"translation"
					}
				},
				{
					"sampler":1,
					"target":{
						"node":3,
						"path":"rotation"
					}
				}
			],
			"name":"\u041a\u043e\u0440\u043e\u0431\u043a\u0430Action",
			"samplers":[
				{
					"input":57,
					"interpolation":"LINEAR",
					"output":58
				},
				{
					"input":57,
					"interpolation":"LINEAR",
					"output":59
				}
			]
		},
		{
			"channels":[
				{
					"sampler":0,
					"target":{
						"node":7,
						"path":"translation"
					}
				},
				{
					"sampler":1,
					"target":{
						"node":7,
						"path":"rotation"
					}
				}
			],
			"name":"\u041a\u0440\u044b\u0448\u043a\u0430Action",
			"samplers":[
				{
					"input":60,
					"interpolation":"LINEAR",
					"output":61
				},
				{
					"input":60,
					"interpolation":"LINEAR",
					"output":62
				}
			]
		}
	],
	"materials":[
		{
			"doubleSided":true,
			"name":"Material.013",
			"pbrMetallicRoughness":{
				"baseColorFactor":[
					0,
					0,
					0,
					1
				],
				"metallicFactor":0,
				"roughnessFactor":0.5
			}
		},
		{
			"doubleSided":true,
			"name":"Material.014",
			"pbrMetallicRoughness":{
				"baseColorFactor":[
					0.800000011920929,
					0.800000011920929,
					0.800000011920929,
					1
				],
				"metallicFactor":0,
				"roughnessFactor":0.5
			}
		},
		{
			"doubleSided":true,
			"name":"Material.009",
			"pbrMetallicRoughness":{
				"baseColorFactor":[
					0.3285118043422699,
					0.39649999141693115,
					0.8045134544372559,
					1
				],
				"metallicFactor":0,
				"roughnessFactor":0.5
			}
		},
		{
			"doubleSided":true,
			"name":"Material.001",
			"pbrMetallicRoughness":{
				"baseColorFactor":[
					0.24081049859523773,
					0.16820961236953735,
					0.08244746923446655,
					1
				],
				"metallicFactor":0,
				"roughnessFactor":0.5
			}
		},
		{
			"doubleSided":true,
			"name":"Material.010",
			"pbrMetallicRoughness":{
				"baseColorFactor":[
					0.8014845848083496,
					0.025436922907829285,
					0,
					1
				],
				"metallicFactor":0,
				"roughnessFactor":0.5
			}
		},
		{
			"doubleSided":true,
			"name":"Material.011",
			"pbrMetallicRoughness":{
				"baseColorFactor":[
					0.03528789430856705,
					0.11751562356948853,
					0.1886836588382721,
					1
				],
				"metallicFactor":0,
				"roughnessFactor":0.5
			}
		},
		{
			"doubleSided":true,
			"name":"Material.012",
			"pbrMetallicRoughness":{
				"baseColorFactor":[
					0.16092410683631897,
					0.0663798451423645,
					0.055777423083782196,
					1
				],
				"metallicFactor":0,
				"roughnessFactor":0.5
			}
		},
		{
			"doubleSided":true,
			"name":"Material.007",
			"pbrMetallicRoughness":{
				"baseColorFactor":[
					0.8518330454826355,
					0.031010160222649574,
					0.004020083695650101,
					1
				],
				"metallicFactor":0,
				"roughnessFactor":0.5
			}
		},
		{
			"doubleSided":true,
			"name":"Material.008",
			"pbrMetallicRoughness":{
				"baseColorFactor":[
					0.8010008931159973,
					0,
					0.003100314177572727,
					1
				],
				"metallicFactor":0,
				"roughnessFactor":0.5
			}
		}
	],
	"meshes":[
		{
			"name":"Plane.006",
			"primitives":[
				{
					"attributes":{
						"POSITION":0,
						"NORMAL":1,
						"TEXCOORD_0":2
					},
					"indices":3,
					"material":0
				},
				{
					"attributes":{
						"POSITION":4,
						"NORMAL":5,
						"TEXCOORD_0":6
					},
					"indices":7,
					"material":1
				}
			]
		},
		{
			"name":"Suzanne",
			"primitives":[
				{
					"attributes":{
						"POSITION":8,
						"NORMAL":9,
						"TEXCOORD_0":10
					},
					"indices":11,
					"material":2
				}
			]
		},
		{
			"name":"Plane",
			"primitives":[
				{
					"attributes":{
						"POSITION":12,
						"NORMAL":13,
						"TEXCOORD_0":14
					},
					"indices":15,
					"material":3
				},
				{
					"attributes":{
						"POSITION":16,
						"NORMAL":17,
						"TEXCOORD_0":18
					},
					"indices":19,
					"material":4
				},
				{
					"attributes":{
						"POSITION":20,
						"NORMAL":21,
						"TEXCOORD_0":22
					},
					"indices":23,
					"material":5
				},
				{
					"attributes":{
						"POSITION":24,
						"NORMAL":25,
						"TEXCOORD_0":26
					},
					"indices":27,
					"material":6
				}
			]
		},
		{
			"name":"Cube.003",
			"primitives":[
				{
					"attributes":{
						"POSITION":28,
						"NORMAL":29,
						"TEXCOORD_0":30
					},
					"indices":31,
					"material":7
				}
			]
		},
		{
			"name":"Cube.011",
			"primitives":[
				{
					"attributes":{
						"POSITION":32,
						"NORMAL":33,
						"TEXCOORD_0":34
					},
					"indices":31,
					"material":7
				}
			]
		},
		{
			"name":"Cube.012",
			"primitives":[
				{
					"attributes":{
						"POSITION":35,
						"NORMAL":36,
						"TEXCOORD_0":37
					},
					"indices":31,
					"material":7
				}
			]
		},
		{
			"name":"Cube.013",
			"primitives":[
				{
					"attributes":{
						"POSITION":38,
						"NORMAL":39,
						"TEXCOORD_0":40
					},
					"indices":31,
					"material":7
				}
			]
		},
		{
			"name":"Plane.002",
			"primitives":[
				{
					"attributes":{
						"POSITION":41,
						"NORMAL":42,
						"TEXCOORD_0":43
					},
					"indices":44,
					"material":8
				}
			]
		},
		{
			"name":"Plane.003",
			"primitives":[
				{
					"attributes":{
						"POSITION":45,
						"NORMAL":46,
						"TEXCOORD_0":47
					},
					"indices":44,
					"material":8
				}
			]
		},
		{
			"name":"Plane.004",
			"primitives":[
				{
					"attributes":{
						"POSITION":48,
						"NORMAL":49,
						"TEXCOORD_0":50
					},
					"indices":44,
					"material":8
				}
			]
		},
		{
			"name":"Plane.005",
			"primitives":[
				{
					"attributes":{
						"POSITION":51,
						"NORMAL":52,
						"TEXCOORD_0":53
					},
					"indices":44,
					"material":8
				}
			]
		}
	],
	"accessors":[
		{
			"bufferView":0,
			"componentType":5126,
			"count":88,
			"max":[
				1,
				-0.019554508849978447,
				1
			],
			"min":[
				-1,
				-0.02835122123360634,
				-1
			],
			"type":"VEC3"
		},
		{
			"bufferView":1,
			"componentType":5126,
			"count":88,
			"type":"VEC3"
		},
		{
			"bufferView":2,
			"componentType":5126,
			"count":88,
			"type":"VEC2"
		},
		{
			"bufferView":3,
			"componentType":5123,
			"count":240,
			"type":"SCALAR"
		},
		{
			"bufferView":4,
			"componentType":5126,
			"count":23,
			"max":[
				1,
				-0.019554508849978447,
				1
			],
			"min":[
				-1,
				-0.019554508849978447,
				-1
			],
			"type":"VEC3"
		},
		{
			"bufferView":5,
			"componentType":5126,
			"count":23,
			"type":"VEC3"
		},
		{
			"bufferView":6,
			"componentType":5126,
			"count":23,
			"type":"VEC2"
		},
		{
			"bufferView":7,
			"componentType":5123,
			"count":48,
			"type":"SCALAR"
		},
		{
			"bufferView":8,
			"componentType":5126,
			"count":1966,
			"max":[
				1.3671875,
				0.984375,
				0.8515625
			],
			"min":[
				-1.3671875,
				-0.984375,
				-0.8515625
			],
			"type":"VEC3"
		},
		{
			"bufferView":9,
			"componentType":5126,
			"count":1966,
			"type":"VEC3"
		},
		{
			"bufferView":10,
			"componentType":5126,
			"count":1966,
			"type":"VEC2"
		},
		{
			"bufferView":11,
			"componentType":5123,
			"count":2904,
			"type":"SCALAR"
		},
		{
			"bufferView":12,
			"componentType":5126,
			"count":792,
			"max":[
				-0.5396612882614136,
				-0.13023018836975098,
				2.299598217010498
			],
			"min":[
				-2.539661407470703,
				-1.146196722984314,
				0.1640481948852539
			],
			"type":"VEC3"
		},
		{
			"bufferView":13,
			"componentType":5126,
			"count":792,
			"type":"VEC3"
		},
		{
			"bufferView":14,
			"componentType":5126,
			"count":792,
			"type":"VEC2"
		},
		{
			"bufferView":15,
			"componentType":5123,
			"count":1581,
			"type":"SCALAR"
		},
		{
			"bufferView":16,
			"componentType":5126,
			"count":143,
			"max":[
				-2.355111837387085,
				-0.8941068649291992,
				1.4529207944869995
			],
			"min":[
				-2.5272223949432373,
				-0.9293447732925415,
				0.8688661456108093
			],
			"type":"VEC3"
		},
		{
			"bufferView":17,
			"componentType":5126,
			"count":143,
			"type":"VEC3"
		},
		{
			"bufferView":18,
			"componentType":5126,
			"count":143,
			"type":"VEC2"
		},
		{
			"bufferView":19,
			"componentType":5123,
			"count":231,
			"type":"SCALAR"
		},
		{
			"bufferView":20,
			"componentType":5126,
			"count":16,
			"max":[
				-0.9611960053443909,
				-0.38422179222106934,
				2.299598217010498
			],
			"min":[
				-2.1041388511657715,
				-0.8922050595283508,
				2.299598217010498
			],
			"type":"VEC3"
		},
		{
			"bufferView":21,
			"componentType":5126,
			"count":16,
			"type":"VEC3"
		},
		{
			"bufferView":22,
			"componentType":5126,
			"count":16,
			"type":"VEC2"
		},
		{
			"bufferView":23,
			"componentType":5123,
			"count":24,
			"type":"SCALAR"
		},
		{
			"bufferView":24,
			"componentType":5126,
			"count":30,
			"max":[
				-2.3773152828216553,
				-0.6382134556770325,
				1.5779682397842407
			],
			"min":[
				-2.5023000240325928,
				-1.146196722984314,
				0.7438141107559204
			],
			"type":"VEC3"
		},
		{
			"bufferView":25,
			"componentType":5126,
			"count":30,
			"type":"VEC3"
		},
		{
			"bufferView":26,
			"componentType":5126,
			"count":30,
			"type":"VEC2"
		},
		{
			"bufferView":27,
			"componentType":5123,
			"count":42,
			"type":"SCALAR"
		},
		{
			"bufferView":28,
			"componentType":5126,
			"count":20,
			"max":[
				1,
				1,
				1
			],
			"min":[
				-1,
				-1,
				-1
			],
			"type":"VEC3"
		},
		{
			"bufferView":29,
			"componentType":5126,
			"count":20,
			"type":"VEC3"
		},
		{
			"bufferView":30,
			"componentType":5126,
			"count":20,
			"type":"VEC2"
		},
		{
			"bufferView":31,
			"componentType":5123,
			"count":30,
			"type":"SCALAR"
		},
		{
			"bufferView":32,
			"componentType":5126,
			"count":20,
			"max":[
				1,
				1,
				1
			],
			"min":[
				-1,
				-1,
				-1
			],
			"type":"VEC3"
		},
		{
			"bufferView":33,
			"componentType":5126,
			"count":20,
			"type":"VEC3"
		},
		{
			"bufferView":34,
			"componentType":5126,
			"count":20,
			"type":"VEC2"
		},
		{
			"bufferView":35,
			"componentType":5126,
			"count":20,
			"max":[
				1,
				1,
				1
			],
			"min":[
				-1,
				-1,
				-1
			],
			"type":"VEC3"
		},
		{
			"bufferView":36,
			"componentType":5126,
			"count":20,
			"type":"VEC3"
		},
		{
			"bufferView":37,
			"componentType":5126,
			"count":20,
			"type":"VEC2"
		},
		{
			"bufferView":38,
			"componentType":5126,
			"count":20,
			"max":[
				1,
				1,
				1
			],
			"min":[
				-1,
				-1,
				-1
			],
			"type":"VEC3"
		},
		{
			"bufferView":39,
			"componentType":5126,
			"count":20,
			"type":"VEC3"
		},
		{
			"bufferView":40,
			"componentType":5126,
			"count":20,
			"type":"VEC2"
		},
		{
			"bufferView":41,
			"componentType":5126,
			"count":20,
			"max":[
				0.8785832524299622,
				-0.00028324127197265625,
				0.7491236925125122
			],
			"min":[
				-0.6453837752342224,
				-0.16103839874267578,
				-0.7748433351516724
			],
			"type":"VEC3"
		},
		{
			"bufferView":42,
			"componentType":5126,
			"count":20,
			"type":"VEC3"
		},
		{
			"bufferView":43,
			"componentType":5126,
			"count":20,
			"type":"VEC2"
		},
		{
			"bufferView":44,
			"componentType":5123,
			"count":30,
			"type":"SCALAR"
		},
		{
			"bufferView":45,
			"componentType":5126,
			"count":20,
			"max":[
				0.8785832524299622,
				-0.00028324127197265625,
				0.7491236925125122
			],
			"min":[
				-0.6453837752342224,
				-0.16103839874267578,
				-0.7748433351516724
			],
			"type":"VEC3"
		},
		{
			"bufferView":46,
			"componentType":5126,
			"count":20,
			"type":"VEC3"
		},
		{
			"bufferView":47,
			"componentType":5126,
			"count":20,
			"type":"VEC2"
		},
		{
			"bufferView":48,
			"componentType":5126,
			"count":20,
			"max":[
				0.8785832524299622,
				-0.00028324127197265625,
				0.7491236925125122
			],
			"min":[
				-0.6453837752342224,
				-0.16103839874267578,
				-0.7748433351516724
			],
			"type":"VEC3"
		},
		{
			"bufferView":49,
			"componentType":5126,
			"count":20,
			"type":"VEC3"
		},
		{
			"bufferView":50,
			"componentType":5126,
			"count":20,
			"type":"VEC2"
		},
		{
			"bufferView":51,
			"componentType":5126,
			"count":20,
			"max":[
				0.8785832524299622,
				-0.00028324127197265625,
				0.7491236925125122
			],
			"min":[
				-0.6453837752342224,
				-0.16103839874267578,
				-0.7748433351516724
			],
			"type":"VEC3"
		},
		{
			"bufferView":52,
			"componentType":5126,
			"count":20,
			"type":"VEC3"
		},
		{
			"bufferView":53,
			"componentType":5126,
			"count":20,
			"type":"VEC2"
		},
		{
			"bufferView":54,
			"componentType":5126,
			"count":51,
			"max":[
				2.0833333333333335
			],
			"min":[
				0
			],
			"type":"SCALAR"
		},
		{
			"bufferView":55,
			"componentType":5126,
			"count":51,
			"type":"VEC3"
		},
		{
			"bufferView":56,
			"componentType":5126,
			"count":51,
			"type":"VEC4"
		},
		{
			"bufferView":57,
			"componentType":5126,
			"count":61,
			"max":[
				2.5
			],
			"min":[
				0
			],
			"type":"SCALAR"
		},
		{
			"bufferView":58,
			"componentType":5126,
			"count":61,
			"type":"VEC3"
		},
		{
			"bufferView":59,
			"componentType":5126,
			"count":61,
			"type":"VEC4"
		},
		{
			"bufferView":60,
			"componentType":5126,
			"count":60,
			"max":[
				2.5
			],
			"min":[
				0.041666666666666664
			],
			"type":"SCALAR"
		},
		{
			"bufferView":61,
			"componentType":5126,
			"count":60,
			"type":"VEC3"
		},
		{
			"bufferView":62,
			"componentType":5126,
			"count":60,
			"type":"VEC4"
		}
	],
	"bufferViews":[
		{
			"buffer":0,
			"byteLength":1056,
			"byteOffset":0,
			"target":34962
		},
		{
			"buffer":0,
			"byteLength":1056,
			"byteOffset":1056,
			"target":34962
		},
		{
			"buffer":0,
			"byteLength":704,
			"byteOffset":2112,
			"target":34962
		},
		{
			"buffer":0,
			"byteLength":480,
			"byteOffset":2816,
			"target":34963
		},
		{
			"buffer":0,
			"byteLength":276,
			"byteOffset":3296,
			"target":34962
		},
		{
			"buffer":0,
			"byteLength":276,
			"byteOffset":3572,
			"target":34962
		},
		{
			"buffer":0,
			"byteLength":184,
			"byteOffset":3848,
			"target":34962
		},
		{
			"buffer":0,
			"byteLength":96,
			"byteOffset":4032,
			"target":34963
		},
		{
			"buffer":0,
			"byteLength":23592,
			"byteOffset":4128,
			"target":34962
		},
		{
			"buffer":0,
			"byteLength":23592,
			"byteOffset":27720,
			"target":34962
		},
		{
			"buffer":0,
			"byteLength":15728,
			"byteOffset":51312,
			"target":34962
		},
		{
			"buffer":0,
			"byteLength":5808,
			"byteOffset":67040,
			"target":34963
		},
		{
			"buffer":0,
			"byteLength":9504,
			"byteOffset":72848,
			"target":34962
		},
		{
			"buffer":0,
			"byteLength":9504,
			"byteOffset":82352,
			"target":34962
		},
		{
			"buffer":0,
			"byteLength":6336,
			"byteOffset":91856,
			"target":34962
		},
		{
			"buffer":0,
			"byteLength":3162,
			"byteOffset":98192,
			"target":34963
		},
		{
			"buffer":0,
			"byteLength":1716,
			"byteOffset":101356,
			"target":34962
		},
		{
			"buffer":0,
			"byteLength":1716,
			"byteOffset":103072,
			"target":34962
		},
		{
			"buffer":0,
			"byteLength":1144,
			"byteOffset":104788,
			"target":34962
		},
		{
			"buffer":0,
			"byteLength":462,
			"byteOffset":105932,
			"target":34963
		},
		{
			"buffer":0,
			"byteLength":192,
			"byteOffset":106396,
			"target":34962
		},
		{
			"buffer":0,
			"byteLength":192,
			"byteOffset":106588,
			"target":34962
		},
		{
			"buffer":0,
			"byteLength":128,
			"byteOffset":106780,
			"target":34962
		},
		{
			"buffer":0,
			"byteLength":48,
			"byteOffset":106908,
			"target":34963
		},
		{
			"buffer":0,
			"byteLength":360,
			"byteOffset":106956,
			"target":34962
		},
		{
			"buffer":0,
			"byteLength":360,
			"byteOffset":107316,
			"target":34962
		},
		{
			"buffer":0,
			"byteLength":240,
			"byteOffset":107676,
			"target":34962
		},
		{
			"buffer":0,
			"byteLength":84,
			"byteOffset":107916,
			"target":34963
		},
		{
			"buffer":0,
			"byteLength":240,
			"byteOffset":108000,
			"target":34962
		},
		{
			"buffer":0,
			"byteLength":240,
			"byteOffset":108240,
			"target":34962
		},
		{
			"buffer":0,
			"byteLength":160,
			"byteOffset":108480,
			"target":34962
		},
		{
			"buffer":0,
			"byteLength":60,
			"byteOffset":108640,
			"target":34963
		},
		{
			"buffer":0,
			"byteLength":240,
			"byteOffset":108700,
			"target":34962
		},
		{
			"buffer":0,
			"byteLength":240,
			"byteOffset":108940,
			"target":34962
		},
		{
			"buffer":0,
			"byteLength":160,
			"byteOffset":109180,
			"target":34962
		},
		{
			"buffer":0,
			"byteLength":240,
			"byteOffset":109340,
			"target":34962
		},
		{
			"buffer":0,
			"byteLength":240,
			"byteOffset":109580,
			"target":34962
		},
		{
			"buffer":0,
			"byteLength":160,
			"byteOffset":109820,
			"target":34962
		},
		{
			"buffer":0,
			"byteLength":240,
			"byteOffset":109980,
			"target":34962
		},
		{
			"buffer":0,
			"byteLength":240,
			"byteOffset":110220,
			"target":34962
		},
		{
			"buffer":0,
			"byteLength":160,
			"byteOffset":110460,
			"target":34962
		},
		{
			"buffer":0,
			"byteLength":240,
			"byteOffset":110620,
			"target":34962
		},
		{
			"buffer":0,
			"byteLength":240,
			"byteOffset":110860,
			"target":34962
		},
		{
			"buffer":0,
			"byteLength":160,
			"byteOffset":111100,
			"target":34962
		},
		{
			"buffer":0,
			"byteLength":60,
			"byteOffset":111260,
			"target":34963
		},
		{
			"buffer":0,
			"byteLength":240,
			"byteOffset":111320,
			"target":34962
		},
		{
			"buffer":0,
			"byteLength":240,
			"byteOffset":111560,
			"target":34962
		},
		{
			"buffer":0,
			"byteLength":160,
			"byteOffset":111800,
			"target":34962
		},
		{
			"buffer":0,
			"byteLength":240,
			"byteOffset":111960,
			"target":34962
		},
		{
			"buffer":0,
			"byteLength":240,
			"byteOffset":112200,
			"target":34962
		},
		{
			"buffer":0,
			"byteLength":160,
			"byteOffset":112440,
			"target":34962
		},
		{
			"buffer":0,
			"byteLength":240,
			"byteOffset":112600,
			"target":34962
		},
		{
			"buffer":0,
			"byteLength":240,
			"byteOffset":112840,
			"target":34962
		},
		{
			"buffer":0,
			"byteLength":160,
			"byteOffset":113080,
			"target":34962
		},
		{
			"buffer":0,
			"byteLength":204,
			"byteOffset":113240
		},
		{
			"buffer":0,
			"byteLength":612,
			"byteOffset":113444
		},
		{
			"buffer":0,
			"byteLength":816,
			"byteOffset":114056
		},
		{
			"buffer":0,
			"byteLength":244,
			"byteOffset":114872
		},
		{
			"buffer":0,
			"byteLength":732,
			"byteOffset":115116
		},
		{
			"buffer":0,
			"byteLength":976,
			"byteOffset":115848
		},
		{
			"buffer":0,
			"byteLength":240,
			"byteOffset":116824
		},
		{
			"buffer":0,
			"byteLength":720,
			"byteOffset":117064
		},
		{
			"buffer":0,
			"byteLength":960,
			"byteOffset":117784
		}
	],
	"buffers":[
		{
			"byteLength":118744,
			"uri":"room.bin"
		}
	]
}
