<svg width="28" height="28" viewBox="0 0 28 28" fill="none" xmlns="http://www.w3.org/2000/svg">
<path d="M7.95131 4.47939C10.2917 2.139 11.4619 0.968811 12.9152 0.968811C14.3698 0.968811 15.54 2.139 17.8791 4.47939L23.8379 10.4369C26.1769 12.7759 27.3471 13.9461 27.3471 15.4007C27.3471 16.8554 26.1769 18.0242 23.8365 20.3646C21.4962 22.705 20.326 23.8752 18.8727 23.8752C17.418 23.8752 16.2478 22.705 13.9088 20.3646L7.94996 14.4072C5.61227 12.0681 4.44073 10.8979 4.44073 9.44327C4.44073 7.98862 5.61092 6.81977 7.95131 4.47939ZM7.5199 16.8365L1.50986 22.8466C1.04744 23.309 0.81691 23.5395 0.67805 23.7795C0.492963 24.0995 0.395508 24.4627 0.395508 24.8324C0.395508 25.2021 0.492963 25.5653 0.67805 25.8853C0.81691 26.1253 1.04744 26.3571 1.50986 26.8182C1.97227 27.2793 2.20146 27.5112 2.44278 27.65C2.76281 27.8351 3.12598 27.9326 3.49568 27.9326C3.86538 27.9326 4.22855 27.8351 4.54858 27.65C4.78855 27.5112 5.02044 27.2793 5.4815 26.8182L11.4915 20.8082L7.5199 16.8365Z" fill="#4299FF"/>
</svg>
