<svg width="22" height="23" viewBox="0 0 22 23" fill="none" xmlns="http://www.w3.org/2000/svg">
<path d="M11.1226 22.2348C8.11172 22.2348 5.56148 21.19 3.47185 19.1004C1.38222 17.0108 0.337402 14.4605 0.337402 11.4496C0.337402 8.43879 1.38222 5.88854 3.47185 3.79891C5.56148 1.70928 8.11172 0.664464 11.1226 0.664464C12.673 0.664464 14.1559 0.984424 15.5715 1.62435C16.987 2.26427 18.2004 3.18011 19.2115 4.37187V2.01261C19.2115 1.63064 19.3409 1.31068 19.5997 1.05273C19.8586 0.794785 20.1785 0.665363 20.5596 0.664464C20.9407 0.663565 21.2611 0.792987 21.5209 1.05273C21.7806 1.31247 21.9096 1.63243 21.9078 2.01261V8.75335C21.9078 9.13533 21.7784 9.45574 21.5195 9.71458C21.2607 9.97343 20.9407 10.1024 20.5596 10.1015H13.8189C13.4369 10.1015 13.1169 9.97208 12.859 9.71323C12.6011 9.45439 12.4716 9.13443 12.4707 8.75335C12.4698 8.37228 12.5993 8.05232 12.859 7.79347C13.1187 7.53463 13.4387 7.4052 13.8189 7.4052H18.133C17.4139 6.14693 16.4311 5.15829 15.1846 4.43928C13.938 3.72027 12.584 3.36076 11.1226 3.36076C8.87567 3.36076 6.9658 4.14718 5.39296 5.72002C3.82012 7.29286 3.0337 9.20274 3.0337 11.4496C3.0337 13.6966 3.82012 15.6064 5.39296 17.1793C6.9658 18.7521 8.87567 19.5385 11.1226 19.5385C12.6505 19.5385 14.0494 19.1512 15.3194 18.3764C16.5893 17.6017 17.5721 16.5623 18.2678 15.2582C18.4475 14.9436 18.7005 14.7248 19.0268 14.6016C19.353 14.4785 19.6842 14.4726 20.0204 14.5841C20.3799 14.6964 20.6383 14.9324 20.7956 15.2919C20.9528 15.6514 20.9416 15.9884 20.7618 16.303C19.8406 18.1005 18.5262 19.5385 16.8185 20.6171C15.1109 21.6956 13.2122 22.2348 11.1226 22.2348Z" fill="#4299FF"/>
</svg>
